<svg xmlns="http://www.w3.org/2000/svg" xmlns:xlink="http://www.w3.org/1999/xlink" xmlns:serif="http://www.serif.com/" width="100%" height="100%" viewBox="0 0 1000 1000" version="1.1" xml:space="preserve" style="fill-rule:evenodd;clip-rule:evenodd;stroke-linejoin:round;stroke-miterlimit:2;">
    <g id="Logo---Speaker.bot" serif:id="Logo - Speaker.bot" transform="matrix(3.81568,0,0,4.15578,-117.074,-270.253)">
        <g transform="matrix(9.75647,0,0,8.5376,5.61916,36.7847)">
            <path d="M29,8L29,24C29,25.097 28.097,26 27,26L10.38,26.05C10.38,26.05 9.461,26.027 9.094,26.208C8.727,26.39 8.178,27.141 8.178,27.141L5.697,30.089C5.103,30.584 4.498,30.598 3.798,30.271C3.085,29.953 2.992,28.63 3,27.85L3,8C3,6.903 3.903,6 5,6L27,6C28.097,6 29,6.903 29,8Z" style="fill:rgb(34,34,34);fill-rule:nonzero;stroke:url(#_Linear1);stroke-width:0.31px;"/>
        </g>
        <g transform="matrix(0.251419,0,0,0.225122,37.6972,91.9258)">
            <g transform="matrix(-1.52208e-16,-0.697515,0.600469,-1.3492e-16,305.646,714.813)">
                <path d="M865,312.5C865,277.453 839.883,249 808.945,249L203.055,249C172.117,249 147,277.453 147,312.5C147,347.547 172.117,376 203.055,376L808.945,376C839.883,376 865,347.547 865,312.5Z" style="fill:rgb(0,219,255);"/>
            </g>
            <g transform="matrix(-1.15173e-16,-0.440581,0.600469,-1.15838e-16,447.271,584.804)">
                <path d="M865,312.5C865,277.453 825.235,249 776.256,249L235.744,249C186.765,249 147,277.453 147,312.5C147,347.547 186.765,376 235.744,376L776.256,376C825.235,376 865,347.547 865,312.5Z" style="fill:rgb(162,87,237);"/>
            </g>
            <g transform="matrix(-5.51114e-17,-0.201375,0.600469,-1.42285e-16,589.3,463.766)">
                <path d="M865,312.5C865,277.453 778,249 670.84,249L341.16,249C234,249 147,277.453 147,312.5C147,347.547 234,376 341.16,376L670.84,376C778,376 865,347.547 865,312.5Z" style="fill:rgb(0,219,255);"/>
            </g>
            <g transform="matrix(-5.51114e-17,-0.201375,0.600469,-1.42285e-16,21.9931,463.766)">
                <path d="M865,312.5C865,277.453 778,249 670.84,249L341.16,249C234,249 147,277.453 147,312.5C147,347.547 234,376 341.16,376L670.84,376C778,376 865,347.547 865,312.5Z" style="fill:rgb(0,219,255);"/>
            </g>
            <g transform="matrix(-1.15173e-16,-0.440581,0.600469,-1.15838e-16,158.574,584.804)">
                <path d="M865,312.5C865,277.453 825.235,249 776.256,249L235.744,249C186.765,249 147,277.453 147,312.5C147,347.547 186.765,376 235.744,376L776.256,376C825.235,376 865,347.547 865,312.5Z" style="fill:rgb(162,87,237);"/>
            </g>
        </g>
    </g>
    <defs>
        <linearGradient id="_Linear1" x1="0" y1="0" x2="1" y2="0" gradientUnits="userSpaceOnUse" gradientTransform="matrix(26.0001,0,0,23.8497,2.99989,17.9248)"><stop offset="0" style="stop-color:rgb(162,87,237);stop-opacity:1"/><stop offset="1" style="stop-color:rgb(0,219,255);stop-opacity:1"/></linearGradient>
    </defs>
</svg>
